<!DOCTYPE svg PUBLIC "-//W3C//DTD SVG 1.1//EN" "http://www.w3.org/Graphics/SVG/1.1/DTD/svg11.dtd">
<!-- Uploaded to: SVG Repo, www.svgrepo.com, Transformed by: SVG Repo Mixer Tools -->
<svg fill="#3e3e3e" height="800px" width="800px" version="1.1" id="Layer_1" xmlns="http://www.w3.org/2000/svg" xmlns:xlink="http://www.w3.org/1999/xlink" viewBox="0 0 511.999 511.999" xml:space="preserve" stroke="#3e3e3e">
<g id="SVGRepo_bgCarrier" stroke-width="0"/>
<g id="SVGRepo_tracerCarrier" stroke-linecap="round" stroke-linejoin="round"/>
<g id="SVGRepo_iconCarrier"> <g> <g> <path d="M438.052,141.469c4.329,0,7.837-3.508,7.837-7.837V68.723c0-26.756-21.768-48.524-48.525-48.524H290.442 C283.668,8.156,270.772,0,255.999,0c-14.773,0-27.669,8.156-34.443,20.198H114.635c-26.757,0-48.525,21.768-48.525,48.524v394.742 c0,26.762,21.768,48.536,48.525,48.536h282.728c26.757,0,48.525-21.774,48.525-48.536V167.832c0-4.329-3.508-7.837-7.837-7.837 s-7.837,3.508-7.837,7.837v295.633c0,18.121-14.737,32.862-32.852,32.862H114.635c-18.114,0-32.852-14.741-32.852-32.862V68.723 c0-18.114,14.737-32.851,32.852-32.851h102.039c-0.11,1.195-0.173,2.403-0.173,3.627v5.862h-15.503 c-15.848,0-28.741,12.894-28.741,28.742v1.319h-37.184c-11.281,0-20.458,9.173-20.458,20.449v144.624 c0,4.329,3.508,7.837,7.837,7.837c4.329,0,7.837-3.508,7.837-7.837V95.869c0-2.634,2.146-4.775,4.785-4.775h37.185v8.782 c0,4.329,3.508,7.837,7.837,7.837h151.81c4.329,0,7.837-3.508,7.837-7.837v-8.782h37.185c2.638,0,4.785,2.142,4.785,4.775v351.41 c0,2.634-2.146,4.775-4.785,4.775H135.073c-2.638,0-4.785-2.142-4.785-4.775v-170.58c0-4.329-3.508-7.837-7.837-7.837 c-4.329,0-7.837,3.508-7.837,7.837v170.58c0,11.276,9.177,20.449,20.458,20.449h241.852c11.281,0,20.458-9.173,20.458-20.449 V95.869c0-11.275-9.177-20.449-20.458-20.449h-37.185v-1.319c0-15.848-12.893-28.742-28.741-28.742h-15.503v-5.862 c0-1.224-0.064-2.432-0.173-3.627h102.04c18.114,0,32.852,14.737,32.852,32.851v64.909 C430.215,137.96,433.724,141.469,438.052,141.469z M232.175,39.498c0-13.136,10.688-23.825,23.825-23.825 c13.136,0,23.825,10.688,23.825,23.825v5.862h-47.649V39.498z M311,61.034c7.206,0,13.069,5.862,13.069,13.069V92.04H187.931 V74.102c0-7.206,5.862-13.069,13.068-13.069H311z"/> </g> </g> <g> <g> <path d="M179.43,159.992c-15.288,0-27.725,12.437-27.725,27.726s12.437,27.726,27.725,27.726 c15.289,0,27.726-12.437,27.726-27.726S194.719,159.992,179.43,159.992z M179.43,199.77c-6.646,0-12.052-5.407-12.052-12.053 s5.405-12.053,12.052-12.053c6.646,0,12.053,5.407,12.053,12.053S186.076,199.77,179.43,199.77z"/> </g> </g> <g> <g> <path d="M179.43,243.85c-15.288,0-27.725,12.437-27.725,27.726s12.437,27.726,27.725,27.726c15.289,0,27.726-12.437,27.726-27.726 C207.157,256.287,194.719,243.85,179.43,243.85z M179.43,283.629c-6.646,0-12.052-5.407-12.052-12.053s5.405-12.053,12.052-12.053 c6.646,0,12.053,5.407,12.053,12.053C191.483,278.222,186.076,283.629,179.43,283.629z"/> </g> </g> <g> <g> <path d="M179.43,327.71c-15.288,0-27.725,12.437-27.725,27.725c0,15.289,12.437,27.726,27.725,27.726 c15.289,0,27.726-12.437,27.726-27.726C207.157,340.148,194.719,327.71,179.43,327.71z M179.43,367.489 c-6.646,0-12.052-5.407-12.052-12.053s5.405-12.052,12.052-12.052c6.646,0,12.053,5.406,12.053,12.052 C191.483,362.081,186.076,367.489,179.43,367.489z"/> </g> </g> <g> <g> <path d="M340.023,179.88H237.328c-4.329,0-7.837,3.508-7.837,7.837c0,4.329,3.508,7.837,7.837,7.837h102.695 c4.329,0,7.837-3.508,7.837-7.837C347.86,183.388,344.352,179.88,340.023,179.88z"/> </g> </g> <g> <g> <path d="M340.023,263.74H237.328c-4.329,0-7.837,3.508-7.837,7.837c0,4.329,3.508,7.837,7.837,7.837h102.695 c4.329,0,7.837-3.508,7.837-7.837C347.86,267.247,344.352,263.74,340.023,263.74z"/> </g> </g> <g> <g> <path d="M340.023,347.599H237.328c-4.329,0-7.837,3.508-7.837,7.837c0,4.329,3.508,7.837,7.837,7.837h102.695 c4.329,0,7.837-3.508,7.837-7.837C347.86,351.107,344.352,347.599,340.023,347.599z"/> </g> </g> </g>
</svg>